<svg xmlns="http://www.w3.org/2000/svg" viewBox="0 0 120 120" width="120" height="120" role="img">
  <title>Mimi le dinosaure — content</title>
  <!-- Queue -->
  <path d="M30 72 Q18 68 14 58 Q12 52 16 50 Q20 48 24 54 Q28 62 34 66" fill="#2D6A4F"/>
  <!-- Corps -->
  <ellipse cx="60" cy="68" rx="28" ry="32" fill="#2D6A4F"/>
  <!-- Ventre -->
  <ellipse cx="60" cy="74" rx="18" ry="20" fill="#52B788"/>
  <!-- Pattes -->
  <ellipse cx="48" cy="98" rx="8" ry="5" fill="#2D6A4F"/>
  <ellipse cx="72" cy="98" rx="8" ry="5" fill="#2D6A4F"/>
  <!-- Tête -->
  <ellipse cx="60" cy="38" rx="22" ry="20" fill="#2D6A4F"/>
  <!-- Crête -->
  <path d="M52 20 Q54 12 58 18 Q60 10 64 18 Q66 12 68 20" fill="#52B788" stroke="#2D6A4F" stroke-width="1.5" stroke-linejoin="round"/>
  <!-- Yeux joyeux (demi-cercles fermés) -->
  <path d="M46 36 Q52 30 58 36" stroke="#1B1B1B" stroke-width="2.5" stroke-linecap="round" fill="none"/>
  <path d="M62 36 Q68 30 74 36" stroke="#1B1B1B" stroke-width="2.5" stroke-linecap="round" fill="none"/>
  <!-- Joues roses -->
  <circle cx="44" cy="42" r="4" fill="#F4A6A0" opacity="0.6"/>
  <circle cx="76" cy="42" r="4" fill="#F4A6A0" opacity="0.6"/>
  <!-- Sourire doux -->
  <path d="M52 46 Q60 54 68 46" stroke="#1B1B1B" stroke-width="2" stroke-linecap="round" fill="none"/>
  <!-- Petits bras -->
  <path d="M34 60 Q28 56 24 58" stroke="#2D6A4F" stroke-width="5" stroke-linecap="round" fill="none"/>
  <path d="M86 60 Q92 56 96 58" stroke="#2D6A4F" stroke-width="5" stroke-linecap="round" fill="none"/>
</svg>
