<svg xmlns="http://www.w3.org/2000/svg" viewBox="0 0 120 120" width="120" height="120" role="img">
  <title>Mimi le dinosaure — neutre</title>
  <!-- Queue -->
  <path d="M30 72 Q18 68 14 58 Q12 52 16 50 Q20 48 24 54 Q28 62 34 66" fill="#52B788"/>
  <!-- Corps -->
  <ellipse cx="60" cy="68" rx="28" ry="32" fill="#52B788"/>
  <!-- Ventre -->
  <ellipse cx="60" cy="74" rx="18" ry="20" fill="#B7E4C7"/>
  <!-- Pattes -->
  <ellipse cx="48" cy="98" rx="8" ry="5" fill="#52B788"/>
  <ellipse cx="72" cy="98" rx="8" ry="5" fill="#52B788"/>
  <!-- Tête -->
  <ellipse cx="60" cy="38" rx="22" ry="20" fill="#52B788"/>
  <!-- Crête -->
  <path d="M52 20 Q54 12 58 18 Q60 10 64 18 Q66 12 68 20" fill="#B7E4C7" stroke="#52B788" stroke-width="1.5" stroke-linejoin="round"/>
  <!-- Yeux normaux ronds -->
  <circle cx="52" cy="35" r="5" fill="#fff"/>
  <circle cx="52" cy="35" r="3" fill="#1B1B1B"/>
  <circle cx="53.5" cy="33.5" r="1" fill="#fff"/>
  <circle cx="68" cy="35" r="5" fill="#fff"/>
  <circle cx="68" cy="35" r="3" fill="#1B1B1B"/>
  <circle cx="69.5" cy="33.5" r="1" fill="#fff"/>
  <!-- Bouche droite -->
  <line x1="54" y1="47" x2="66" y2="47" stroke="#1B1B1B" stroke-width="2" stroke-linecap="round"/>
  <!-- Petits bras -->
  <path d="M34 60 Q28 58 24 60" stroke="#52B788" stroke-width="5" stroke-linecap="round" fill="none"/>
  <path d="M86 60 Q92 58 96 60" stroke="#52B788" stroke-width="5" stroke-linecap="round" fill="none"/>
</svg>
