<svg xmlns="http://www.w3.org/2000/svg" viewBox="0 0 120 120" width="120" height="120" role="img">
  <title>Mimi le dinosaure — inquiet</title>
  <!-- Queue -->
  <path d="M30 72 Q18 70 14 62 Q12 56 16 54 Q20 52 24 58 Q28 64 34 68" fill="#2D6A4F"/>
  <!-- Corps -->
  <ellipse cx="60" cy="68" rx="28" ry="32" fill="#2D6A4F"/>
  <!-- Ventre -->
  <ellipse cx="60" cy="74" rx="18" ry="20" fill="#52B788"/>
  <!-- Pattes -->
  <ellipse cx="48" cy="98" rx="8" ry="5" fill="#2D6A4F"/>
  <ellipse cx="72" cy="98" rx="8" ry="5" fill="#2D6A4F"/>
  <!-- Tête -->
  <ellipse cx="60" cy="38" rx="22" ry="20" fill="#2D6A4F"/>
  <!-- Crête -->
  <path d="M52 20 Q54 12 58 18 Q60 10 64 18 Q66 12 68 20" fill="#52B788" stroke="#2D6A4F" stroke-width="1.5" stroke-linejoin="round"/>
  <!-- Sourcils relevés -->
  <line x1="46" y1="26" x2="56" y2="28" stroke="#1B1B1B" stroke-width="2" stroke-linecap="round"/>
  <line x1="74" y1="26" x2="64" y2="28" stroke="#1B1B1B" stroke-width="2" stroke-linecap="round"/>
  <!-- Yeux écarquillés -->
  <circle cx="52" cy="35" r="6" fill="#fff"/>
  <circle cx="52" cy="36" r="3" fill="#1B1B1B"/>
  <circle cx="53.5" cy="34.5" r="1" fill="#fff"/>
  <circle cx="68" cy="35" r="6" fill="#fff"/>
  <circle cx="68" cy="36" r="3" fill="#1B1B1B"/>
  <circle cx="69.5" cy="34.5" r="1" fill="#fff"/>
  <!-- Bouche inquiète (petite ondulation) -->
  <path d="M53 48 Q57 46 60 48 Q63 50 67 48" stroke="#1B1B1B" stroke-width="2" stroke-linecap="round" fill="none"/>
  <!-- Goutte de sueur -->
  <path d="M78 28 Q80 34 78 38 Q76 34 78 28Z" fill="#7EC8E3" opacity="0.8"/>
  <!-- Petits bras (serrés) -->
  <path d="M34 62 Q30 64 28 68" stroke="#2D6A4F" stroke-width="5" stroke-linecap="round" fill="none"/>
  <path d="M86 62 Q90 64 92 68" stroke="#2D6A4F" stroke-width="5" stroke-linecap="round" fill="none"/>
</svg>
