<svg xmlns="http://www.w3.org/2000/svg" viewBox="0 0 120 120" width="120" height="120" role="img">
  <title>Mimi le dinosaure — surexcité</title>
  <!-- Queue -->
  <path d="M30 72 Q18 68 14 58 Q12 52 16 50 Q20 48 24 54 Q28 62 34 66" fill="#52B788"/>
  <!-- Corps -->
  <ellipse cx="60" cy="68" rx="28" ry="32" fill="#52B788"/>
  <!-- Ventre -->
  <ellipse cx="60" cy="74" rx="18" ry="20" fill="#B7E4C7"/>
  <!-- Pattes -->
  <ellipse cx="48" cy="98" rx="8" ry="5" fill="#52B788"/>
  <ellipse cx="72" cy="98" rx="8" ry="5" fill="#52B788"/>
  <!-- Tête -->
  <ellipse cx="60" cy="38" rx="22" ry="20" fill="#52B788"/>
  <!-- Crête -->
  <path d="M52 20 Q54 12 58 18 Q60 10 64 18 Q66 12 68 20" fill="#B7E4C7" stroke="#52B788" stroke-width="1.5" stroke-linejoin="round"/>
  <!-- Yeux étoilés -->
  <circle cx="52" cy="36" r="6" fill="#fff"/>
  <path d="M52 30 L53.2 33.5 L56.8 33.5 L54 35.8 L55 39.2 L52 37 L49 39.2 L50 35.8 L47.2 33.5 L50.8 33.5Z" fill="#FFD700"/>
  <circle cx="68" cy="36" r="6" fill="#fff"/>
  <path d="M68 30 L69.2 33.5 L72.8 33.5 L70 35.8 L71 39.2 L68 37 L65 39.2 L66 35.8 L63.2 33.5 L66.8 33.5Z" fill="#FFD700"/>
  <!-- Bouche grande ouverte sourire -->
  <path d="M50 46 Q60 58 70 46" fill="#C1121F" stroke="#52B788" stroke-width="1.2"/>
  <path d="M53 46 Q60 50 67 46" fill="#fff"/>
  <!-- Bras levés -->
  <path d="M34 58 Q26 48 22 42" stroke="#52B788" stroke-width="5" stroke-linecap="round" fill="none"/>
  <path d="M86 58 Q94 48 98 42" stroke="#52B788" stroke-width="5" stroke-linecap="round" fill="none"/>
  <!-- Petites étoiles -->
  <path d="M16 32 L17.5 36 L14 34 L19 34 L15.5 36Z" fill="#FFD700"/>
  <path d="M100 28 L101.5 32 L98 30 L103 30 L99.5 32Z" fill="#FFD700"/>
  <path d="M94 56 L95.5 60 L92 58 L97 58 L93.5 60Z" fill="#FFD700"/>
</svg>
